<?xml version="1.0" encoding="UTF-8" standalone="no"?><svg xmlns="http://www.w3.org/2000/svg" xmlns:xlink="http://www.w3.org/1999/xlink" clip-rule="evenodd" stroke-miterlimit="4.00" viewBox="0 0 966 612"><desc>SVG generated by Keynote</desc><defs></defs><g transform="matrix(1.00, 0.00, -0.00, -1.00, 0.0, 612.0)"><g><clipPath id="clip-137"><path d="M 1.0 611.0 L 965.0 611.0 L 965.0 2.0 L 1.0 2.0 Z M 1.1 611.0 "></path></clipPath><g clip-path="url(#clip-137)"><g><clipPath id="clip-138"><path d="M -230.1 784.2 L 1197.9 784.2 L 1197.9 -196.0 L -230.1 -196.0 Z M -230.1 784.2 "></path></clipPath><g clip-path="url(#clip-138)"><g><clipPath id="clip-139"><path d="M -281.0 -245.0 L 1247.0 -245.0 L 1247.0 835.0 L -281.0 835.0 Z M -281.0 -245.0 "></path></clipPath><g clip-path="url(#clip-139)"><path d="M -230.1 784.2 L 1197.9 784.2 L 1197.9 -196.0 L -230.1 -196.0 Z M -230.1 784.2 " fill="#FFFFFF"></path></g></g></g></g></g></g><g><clipPath id="clip-140"><path d="M 1.0 611.0 L 965.0 611.0 L 965.0 2.0 L 1.0 2.0 Z M 1.1 611.0 "></path></clipPath><g clip-path="url(#clip-140)"><g><clipPath id="clip-141"><path d="M -230.1 695.3 L 1197.9 695.3 L 1197.9 -107.2 L -230.1 -107.2 Z M -230.1 695.3 "></path></clipPath><g clip-path="url(#clip-141)"><g><clipPath id="clip-142"><path d="M -281.0 -245.0 L 1247.0 -245.0 L 1247.0 835.0 L -281.0 835.0 Z M -281.0 -245.0 "></path></clipPath><g clip-path="url(#clip-142)"><path d="M -230.1 695.3 L 1197.9 695.3 L 1197.9 -107.2 L -230.1 -107.2 Z M -230.1 695.3 " fill="#FFFFFF"></path></g></g></g></g></g></g><g><clipPath id="clip-143"><path d="M 1.0 611.0 L 965.0 611.0 L 965.0 2.0 L 1.0 2.0 Z M 1.1 611.0 "></path></clipPath><g clip-path="url(#clip-143)"><g><clipPath id="clip-144"><path d="M 202.7 586.7 L 765.1 586.7 L 765.1 421.0 L 202.7 421.0 Z M 202.7 586.7 "></path></clipPath><g clip-path="url(#clip-144)"><g><clipPath id="clip-145"><path d="M -281.0 -245.0 L 1247.0 -245.0 L 1247.0 835.0 L -281.0 835.0 Z M -281.0 -245.0 "></path></clipPath><g clip-path="url(#clip-145)"><image xlink:href="../../5FF6876B-E739-44A6-9B31-E9CD962B578B/assets/ECC1A54C6685F665A605FD18E137E270.png" width="1000.00" height="295.00" transform="matrix(0.56, 0.00, -0.00, -0.56, 202.7, 586.7)"></image></g></g></g></g></g></g><g><clipPath id="clip-146"><path d="M 1.0 611.0 L 965.0 611.0 L 965.0 2.0 L 1.0 2.0 Z M 1.1 611.0 "></path></clipPath><g clip-path="url(#clip-146)"><g><clipPath id="clip-147"><path d="M 469.2 154.4 L 766.7 154.4 L 766.7 -68.5 L 469.2 -68.5 Z M 469.2 154.4 "></path></clipPath><g clip-path="url(#clip-147)"><g><clipPath id="clip-148"><path d="M -281.0 -245.0 L 1247.0 -245.0 L 1247.0 835.0 L -281.0 835.0 Z M -281.0 -245.0 "></path></clipPath><g clip-path="url(#clip-148)"><image xlink:href="../../5FF6876B-E739-44A6-9B31-E9CD962B578B/assets/0233D5EBE60689192EE08235F22B0C5C.png" width="200.00" height="150.00" transform="matrix(1.49, 0.00, -0.00, -1.49, 469.2, 154.4)"></image></g></g></g></g></g></g><g><clipPath id="clip-149"><path d="M 1.0 611.0 L 965.0 611.0 L 965.0 2.0 L 1.0 2.0 Z M 1.1 611.0 "></path></clipPath><g clip-path="url(#clip-149)"><g><clipPath id="clip-150"><path d="M 88.9 87.4 L 452.2 87.4 L 452.2 -1.5 L 88.9 -1.5 Z M 88.9 87.4 "></path></clipPath><g clip-path="url(#clip-150)"><g><clipPath id="clip-151"><path d="M -281.0 -245.0 L 1247.0 -245.0 L 1247.0 835.0 L -281.0 835.0 Z M -281.0 -245.0 "></path></clipPath><g clip-path="url(#clip-151)"><image xlink:href="../../5FF6876B-E739-44A6-9B31-E9CD962B578B/assets/C342CEE6CCA370264FD920F1F57E6D9E.png" width="600.00" height="147.00" transform="matrix(0.61, 0.00, -0.00, -0.60, 88.9, 87.4)"></image></g></g></g></g></g></g><g><clipPath id="clip-152"><path d="M 1.0 611.0 L 965.0 611.0 L 965.0 2.0 L 1.0 2.0 Z M 1.1 611.0 "></path></clipPath><g clip-path="url(#clip-152)"><g><clipPath id="clip-153"><path d="M -230.1 695.3 L 1197.9 695.3 L 1197.9 -107.2 L -230.1 -107.2 Z M -230.1 695.3 "></path></clipPath><g clip-path="url(#clip-153)"><g><clipPath id="clip-154"><path d="M -281.0 -245.0 L 1247.0 -245.0 L 1247.0 835.0 L -281.0 835.0 Z M -281.0 -245.0 "></path></clipPath><g clip-path="url(#clip-154)"><path d="M 812.5 18.1 L 812.5 27.9 L 822.3 27.9 L 822.3 18.1 L 812.5 18.1 Z M 832.4 18.1 L 832.4 27.9 L 842.1 27.9 L 842.1 18.1 L 832.4 18.1 Z M 852.2 18.1 L 852.2 27.9 L 862.0 27.9 L 862.0 18.1 L 852.2 18.1 Z M 852.2 18.1 " fill="#000000"></path></g></g></g></g></g></g><g><clipPath id="clip-155"><path d="M 1.0 611.0 L 965.0 611.0 L 965.0 2.0 L 1.0 2.0 Z M 1.1 611.0 "></path></clipPath><g clip-path="url(#clip-155)"><g><clipPath id="clip-156"><path d="M 182.4 377.8 L 785.4 377.8 L 785.4 150.0 L 182.4 150.0 Z M 182.4 377.8 "></path></clipPath><g clip-path="url(#clip-156)"><g><clipPath id="clip-157"><path d="M -281.0 -245.0 L 1247.0 -245.0 L 1247.0 835.0 L -281.0 835.0 Z M -281.0 -245.0 "></path></clipPath><g clip-path="url(#clip-157)"><image xlink:href="../../5FF6876B-E739-44A6-9B31-E9CD962B578B/assets/D9D82A39BA78A6BD2B5429613CB5CE32.png" width="1000.00" height="378.00" transform="matrix(0.60, 0.00, -0.00, -0.60, 182.4, 377.8)"></image></g></g></g></g></g></g></g></svg>