<?xml version="1.0" encoding="UTF-8" standalone="no"?><svg xmlns="http://www.w3.org/2000/svg" xmlns:xlink="http://www.w3.org/1999/xlink" clip-rule="evenodd" stroke-miterlimit="4.00" viewBox="0 0 475 43"><desc>SVG generated by Keynote</desc><defs></defs><g transform="matrix(1.00, 0.00, -0.00, -1.00, 0.0, 43.0)"><text xml:space="preserve" font-family="Helvetica-Light" font-size="42.0" fill="#000000" transform="matrix(1.00, 0.00, -0.00, -1.00, 0.0, 11.0)">S</text><text xml:space="preserve" font-family="Helvetica-Light" font-size="42.0" fill="#000000" transform="matrix(1.00, 0.00, -0.00, -1.00, 25.7, 11.0)">a</text><text xml:space="preserve" font-family="Helvetica-Light" font-size="42.0" fill="#000000" transform="matrix(1.00, 0.00, -0.00, -1.00, 49.0, 11.0)">f</text><text xml:space="preserve" font-family="Helvetica-Light" font-size="42.0" fill="#000000" transform="matrix(1.00, 0.00, -0.00, -1.00, 60.7, 11.0)">e</text><text xml:space="preserve" font-family="Helvetica-Light" font-size="42.0" fill="#000000" transform="matrix(1.00, 0.00, -0.00, -1.00, 84.0, 11.0)">:</text><text xml:space="preserve" font-family="Helvetica-Light" font-size="42.0" fill="#000000" transform="matrix(1.00, 0.00, -0.00, -1.00, 95.7, 11.0)"> </text><text xml:space="preserve" font-family="Helvetica-Light" font-size="42.0" fill="#000000" transform="matrix(1.00, 0.00, -0.00, -1.00, 107.4, 11.0)">o</text><text xml:space="preserve" font-family="Helvetica-Light" font-size="42.0" fill="#000000" transform="matrix(1.00, 0.00, -0.00, -1.00, 130.7, 11.0)">p</text><text xml:space="preserve" font-family="Helvetica-Light" font-size="42.0" fill="#000000" transform="matrix(1.00, 0.00, -0.00, -1.00, 156.4, 11.0)">a</text><text xml:space="preserve" font-family="Helvetica-Light" font-size="42.0" fill="#000000" transform="matrix(1.00, 0.00, -0.00, -1.00, 179.8, 11.0)">c</text><text xml:space="preserve" font-family="Helvetica-Light" font-size="42.0" fill="#000000" transform="matrix(1.00, 0.00, -0.00, -1.00, 203.1, 11.0)">i</text><text xml:space="preserve" font-family="Helvetica-Light" font-size="42.0" fill="#000000" transform="matrix(1.00, 0.00, -0.00, -1.00, 212.4, 11.0)">t</text><text xml:space="preserve" font-family="Helvetica-Light" font-size="42.0" fill="#000000" transform="matrix(1.00, 0.00, -0.00, -1.00, 224.1, 11.0)">y</text><text xml:space="preserve" font-family="Helvetica-Light" font-size="42.0" fill="#000000" transform="matrix(1.00, 0.00, -0.00, -1.00, 245.1, 11.0)"> </text><text xml:space="preserve" font-family="Helvetica-Light" font-size="42.0" fill="#000000" transform="matrix(1.00, 0.00, -0.00, -1.00, 256.8, 11.0)">&amp;</text><text xml:space="preserve" font-family="Helvetica-Light" font-size="42.0" fill="#000000" transform="matrix(1.00, 0.00, -0.00, -1.00, 284.8, 11.0)"> </text><text xml:space="preserve" font-family="Helvetica-Light" font-size="42.0" fill="#000000" transform="matrix(1.00, 0.00, -0.00, -1.00, 296.5, 11.0)">t</text><text xml:space="preserve" font-family="Helvetica-Light" font-size="42.0" fill="#000000" transform="matrix(1.00, 0.00, -0.00, -1.00, 308.2, 11.0)">r</text><text xml:space="preserve" font-family="Helvetica-Light" font-size="42.0" fill="#000000" transform="matrix(1.00, 0.00, -0.00, -1.00, 322.1, 11.0)">a</text><text xml:space="preserve" font-family="Helvetica-Light" font-size="42.0" fill="#000000" transform="matrix(1.00, 0.00, -0.00, -1.00, 345.5, 11.0)">n</text><text xml:space="preserve" font-family="Helvetica-Light" font-size="42.0" fill="#000000" transform="matrix(1.00, 0.00, -0.00, -1.00, 368.8, 11.0)">s</text><text xml:space="preserve" font-family="Helvetica-Light" font-size="42.0" fill="#000000" transform="matrix(1.00, 0.00, -0.00, -1.00, 389.8, 11.0)">f</text><text xml:space="preserve" font-family="Helvetica-Light" font-size="42.0" fill="#000000" transform="matrix(1.00, 0.00, -0.00, -1.00, 401.5, 11.0)">o</text><text xml:space="preserve" font-family="Helvetica-Light" font-size="42.0" fill="#000000" transform="matrix(1.00, 0.00, -0.00, -1.00, 424.9, 11.0)">r</text><text xml:space="preserve" font-family="Helvetica-Light" font-size="42.0" fill="#000000" transform="matrix(1.00, 0.00, -0.00, -1.00, 439.6, 11.0)">m</text></g></svg>