<?xml version="1.0" encoding="UTF-8" standalone="no"?><svg xmlns="http://www.w3.org/2000/svg" xmlns:xlink="http://www.w3.org/1999/xlink" clip-rule="evenodd" stroke-miterlimit="4.00" viewBox="0 0 1024 768"><desc>SVG generated by Keynote</desc><defs></defs><g transform="matrix(1.00, 0.00, -0.00, -1.00, 0.0, 768.0)"><path d="M 0.0 768.0 L 1024.0 768.0 L 1024.0 0.0 L 0.0 0.0 Z M 0.0 768.0 " fill="#FEFFFF"></path><text xml:space="preserve" font-family="Helvetica-Light" font-size="26.0" fill="#000000" transform="matrix(1.00, 0.00, -0.00, -1.00, 779.0, 25.0)">h</text><text xml:space="preserve" font-family="Helvetica-Light" font-size="26.0" fill="#000000" transform="matrix(1.00, 0.00, -0.00, -1.00, 793.5, 25.0)">t</text><text xml:space="preserve" font-family="Helvetica-Light" font-size="26.0" fill="#000000" transform="matrix(1.00, 0.00, -0.00, -1.00, 800.7, 25.0)">t</text><text xml:space="preserve" font-family="Helvetica-Light" font-size="26.0" fill="#000000" transform="matrix(1.00, 0.00, -0.00, -1.00, 807.9, 25.0)">p</text><text xml:space="preserve" font-family="Helvetica-Light" font-size="26.0" fill="#000000" transform="matrix(1.00, 0.00, -0.00, -1.00, 823.8, 25.0)">:</text><text xml:space="preserve" font-family="Helvetica-Light" font-size="26.0" fill="#000000" transform="matrix(1.00, 0.00, -0.00, -1.00, 831.0, 25.0)">/</text><text xml:space="preserve" font-family="Helvetica-Light" font-size="26.0" fill="#000000" transform="matrix(1.00, 0.00, -0.00, -1.00, 838.3, 25.0)">/</text><text xml:space="preserve" font-family="Helvetica-Light" font-size="26.0" fill="#000000" transform="matrix(1.00, 0.00, -0.00, -1.00, 845.5, 25.0)">b</text><text xml:space="preserve" font-family="Helvetica-Light" font-size="26.0" fill="#000000" transform="matrix(1.00, 0.00, -0.00, -1.00, 861.4, 25.0)">i</text><text xml:space="preserve" font-family="Helvetica-Light" font-size="26.0" fill="#000000" transform="matrix(1.00, 0.00, -0.00, -1.00, 867.1, 25.0)">t</text><text xml:space="preserve" font-family="Helvetica-Light" font-size="26.0" fill="#000000" transform="matrix(1.00, 0.00, -0.00, -1.00, 874.4, 25.0)">.</text><text xml:space="preserve" font-family="Helvetica-Light" font-size="26.0" fill="#000000" transform="matrix(1.00, 0.00, -0.00, -1.00, 881.6, 25.0)">l</text><text xml:space="preserve" font-family="Helvetica-Light" font-size="26.0" fill="#000000" transform="matrix(1.00, 0.00, -0.00, -1.00, 887.4, 25.0)">y</text><text xml:space="preserve" font-family="Helvetica-Light" font-size="26.0" fill="#000000" transform="matrix(1.00, 0.00, -0.00, -1.00, 900.4, 25.0)">/</text><text xml:space="preserve" font-family="Helvetica-Light" font-size="26.0" fill="#000000" transform="matrix(1.00, 0.00, -0.00, -1.00, 907.6, 25.0)">g</text><text xml:space="preserve" font-family="Helvetica-Light" font-size="26.0" fill="#000000" transform="matrix(1.00, 0.00, -0.00, -1.00, 923.5, 25.0)">d</text><text xml:space="preserve" font-family="Helvetica-Light" font-size="26.0" fill="#000000" transform="matrix(1.00, 0.00, -0.00, -1.00, 939.4, 25.0)">g</text><text xml:space="preserve" font-family="Helvetica-Light" font-size="26.0" fill="#000000" transform="matrix(1.00, 0.00, -0.00, -1.00, 955.3, 25.0)">n</text><text xml:space="preserve" font-family="Helvetica-Light" font-size="26.0" fill="#000000" transform="matrix(1.00, 0.00, -0.00, -1.00, 969.7, 25.0)">s</text><text xml:space="preserve" font-family="Helvetica-Light" font-size="26.0" fill="#000000" transform="matrix(1.00, 0.00, -0.00, -1.00, 982.7, 25.0)">k</text><text xml:space="preserve" font-family="Helvetica-Light" font-size="26.0" fill="#000000" transform="matrix(1.00, 0.00, -0.00, -1.00, 995.7, 25.0)">5</text><g><clipPath id="clip-114"><path d="M 777.8 21.8 L 1009.9 21.8 L 1009.9 25.1 L 777.8 25.1 Z M 777.8 21.8 "></path></clipPath><g clip-path="url(#clip-114)"><path d="M 4.5 31.0 L 235.7 31.0 " fill="none" stroke="#000000" stroke-width="1.30" stroke-miterlimit="0.00" transform="matrix(1.00, 0.00, 0.00, -1.00, 774.3, 54.4)"></path></g></g><g><clipPath id="clip-115"><path d="M 30.0 710.0 L 994.0 710.0 L 994.0 101.0 L 30.0 101.0 Z M 30.1 710.0 "></path></clipPath><g clip-path="url(#clip-115)"><g><clipPath id="clip-116"><path d="M -201.1 883.2 L 1226.9 883.2 L 1226.9 -97.0 L -201.1 -97.0 Z M -201.1 883.2 "></path></clipPath><g clip-path="url(#clip-116)"><g><clipPath id="clip-117"><path d="M -252.0 -146.0 L 1276.0 -146.0 L 1276.0 934.0 L -252.0 934.0 Z M -252.0 -146.0 "></path></clipPath><g clip-path="url(#clip-117)"><path d="M -201.1 883.2 L 1226.9 883.2 L 1226.9 -97.0 L -201.1 -97.0 Z M -201.1 883.2 " fill="#FFFFFF"></path></g></g></g></g></g></g><g><clipPath id="clip-118"><path d="M 30.0 710.0 L 994.0 710.0 L 994.0 101.0 L 30.0 101.0 Z M 30.1 710.0 "></path></clipPath><g clip-path="url(#clip-118)"><g><clipPath id="clip-119"><path d="M -201.1 794.3 L 1226.9 794.3 L 1226.9 -8.2 L -201.1 -8.2 Z M -201.1 794.3 "></path></clipPath><g clip-path="url(#clip-119)"><g><clipPath id="clip-120"><path d="M -252.0 -146.0 L 1276.0 -146.0 L 1276.0 934.0 L -252.0 934.0 Z M -252.0 -146.0 "></path></clipPath><g clip-path="url(#clip-120)"><path d="M -201.1 794.3 L 1226.9 794.3 L 1226.9 -8.2 L -201.1 -8.2 Z M -201.1 794.3 " fill="#FFFFFF"></path></g></g></g></g></g></g><g><clipPath id="clip-121"><path d="M 30.0 710.0 L 994.0 710.0 L 994.0 101.0 L 30.0 101.0 Z M 30.1 710.0 "></path></clipPath><g clip-path="url(#clip-121)"><g><clipPath id="clip-122"><path d="M 231.7 685.7 L 794.1 685.7 L 794.1 520.0 L 231.7 520.0 Z M 231.7 685.7 "></path></clipPath><g clip-path="url(#clip-122)"><g><clipPath id="clip-123"><path d="M -252.0 -146.0 L 1276.0 -146.0 L 1276.0 934.0 L -252.0 934.0 Z M -252.0 -146.0 "></path></clipPath><g clip-path="url(#clip-123)"><image xlink:href="ECC1A54C6685F665A605FD18E137E270.png" width="1000.00" height="295.00" transform="matrix(0.56, 0.00, -0.00, -0.56, 231.7, 685.7)"></image></g></g></g></g></g></g><g><clipPath id="clip-124"><path d="M 30.0 710.0 L 994.0 710.0 L 994.0 101.0 L 30.0 101.0 Z M 30.1 710.0 "></path></clipPath><g clip-path="url(#clip-124)"><g><clipPath id="clip-125"><path d="M 498.2 253.4 L 795.7 253.4 L 795.7 30.5 L 498.2 30.5 Z M 498.2 253.4 "></path></clipPath><g clip-path="url(#clip-125)"><g><clipPath id="clip-126"><path d="M -252.0 -146.0 L 1276.0 -146.0 L 1276.0 934.0 L -252.0 934.0 Z M -252.0 -146.0 "></path></clipPath><g clip-path="url(#clip-126)"><image xlink:href="0233D5EBE60689192EE08235F22B0C5C.png" width="200.00" height="150.00" transform="matrix(1.49, 0.00, -0.00, -1.49, 498.2, 253.4)"></image></g></g></g></g></g></g><g><clipPath id="clip-127"><path d="M 30.0 710.0 L 994.0 710.0 L 994.0 101.0 L 30.0 101.0 Z M 30.1 710.0 "></path></clipPath><g clip-path="url(#clip-127)"><g><clipPath id="clip-128"><path d="M 117.9 186.4 L 481.2 186.4 L 481.2 97.5 L 117.9 97.5 Z M 117.9 186.4 "></path></clipPath><g clip-path="url(#clip-128)"><g><clipPath id="clip-129"><path d="M -252.0 -146.0 L 1276.0 -146.0 L 1276.0 934.0 L -252.0 934.0 Z M -252.0 -146.0 "></path></clipPath><g clip-path="url(#clip-129)"><image xlink:href="C342CEE6CCA370264FD920F1F57E6D9E.png" width="600.00" height="147.00" transform="matrix(0.61, 0.00, -0.00, -0.60, 117.9, 186.4)"></image></g></g></g></g></g></g><g><clipPath id="clip-130"><path d="M 30.0 710.0 L 994.0 710.0 L 994.0 101.0 L 30.0 101.0 Z M 30.1 710.0 "></path></clipPath><g clip-path="url(#clip-130)"><g><clipPath id="clip-131"><path d="M -201.1 794.3 L 1226.9 794.3 L 1226.9 -8.2 L -201.1 -8.2 Z M -201.1 794.3 "></path></clipPath><g clip-path="url(#clip-131)"><g><clipPath id="clip-132"><path d="M -252.0 -146.0 L 1276.0 -146.0 L 1276.0 934.0 L -252.0 934.0 Z M -252.0 -146.0 "></path></clipPath><g clip-path="url(#clip-132)"><path d="M 841.5 117.1 L 841.5 126.9 L 851.3 126.9 L 851.3 117.1 L 841.5 117.1 Z M 861.4 117.1 L 861.4 126.9 L 871.1 126.9 L 871.1 117.1 L 861.4 117.1 Z M 881.2 117.1 L 881.2 126.9 L 891.0 126.9 L 891.0 117.1 L 881.2 117.1 Z M 881.2 117.1 " fill="#000000"></path></g></g></g></g></g></g><g><clipPath id="clip-133"><path d="M 30.0 710.0 L 994.0 710.0 L 994.0 101.0 L 30.0 101.0 Z M 30.1 710.0 "></path></clipPath><g clip-path="url(#clip-133)"><g><clipPath id="clip-134"><path d="M 211.4 476.8 L 814.4 476.8 L 814.4 249.0 L 211.4 249.0 Z M 211.4 476.8 "></path></clipPath><g clip-path="url(#clip-134)"><g><clipPath id="clip-135"><path d="M -252.0 -146.0 L 1276.0 -146.0 L 1276.0 934.0 L -252.0 934.0 Z M -252.0 -146.0 "></path></clipPath><g clip-path="url(#clip-135)"><image xlink:href="D9D82A39BA78A6BD2B5429613CB5CE32.png" width="1000.00" height="378.00" transform="matrix(0.60, 0.00, -0.00, -0.60, 211.4, 476.8)"></image></g></g></g></g></g></g></g></svg>