<?xml version="1.0" encoding="UTF-8" standalone="no"?><svg xmlns="http://www.w3.org/2000/svg" xmlns:xlink="http://www.w3.org/1999/xlink" clip-rule="evenodd" stroke-miterlimit="4.00" viewBox="0 0 775 44"><desc>SVG generated by Keynote</desc><defs></defs><g transform="matrix(1.00, 0.00, -0.00, -1.00, 0.0, 44.0)"><text xml:space="preserve" font-family="Helvetica-Light" font-size="31.5" fill="#000000" transform="matrix(1.00, 0.00, -0.00, -1.00, 0.4, 16.7)">•</text><text xml:space="preserve" font-family="Helvetica-Light" font-size="42.0" fill="#000000" transform="matrix(1.00, 0.00, -0.00, -1.00, 26.0, 13.0)">I</text><text xml:space="preserve" font-family="Helvetica-Light" font-size="42.0" fill="#000000" transform="matrix(1.00, 0.00, -0.00, -1.00, 37.7, 13.0)">n</text><text xml:space="preserve" font-family="Helvetica-Light" font-size="42.0" fill="#000000" transform="matrix(1.00, 0.00, -0.00, -1.00, 61.0, 13.0)">t</text><text xml:space="preserve" font-family="Helvetica-Light" font-size="42.0" fill="#000000" transform="matrix(1.00, 0.00, -0.00, -1.00, 72.7, 13.0)">r</text><text xml:space="preserve" font-family="Helvetica-Light" font-size="42.0" fill="#000000" transform="matrix(1.00, 0.00, -0.00, -1.00, 85.9, 13.0)">o</text><text xml:space="preserve" font-family="Helvetica-Light" font-size="42.0" fill="#000000" transform="matrix(1.00, 0.00, -0.00, -1.00, 109.3, 13.0)">d</text><text xml:space="preserve" font-family="Helvetica-Light" font-size="42.0" fill="#000000" transform="matrix(1.00, 0.00, -0.00, -1.00, 134.9, 13.0)">u</text><text xml:space="preserve" font-family="Helvetica-Light" font-size="42.0" fill="#000000" transform="matrix(1.00, 0.00, -0.00, -1.00, 158.3, 13.0)">c</text><text xml:space="preserve" font-family="Helvetica-Light" font-size="42.0" fill="#000000" transform="matrix(1.00, 0.00, -0.00, -1.00, 181.7, 13.0)">e</text><text xml:space="preserve" font-family="Helvetica-Light" font-size="42.0" fill="#000000" transform="matrix(1.00, 0.00, -0.00, -1.00, 205.0, 13.0)"> </text><text xml:space="preserve" font-family="Helvetica-Light" font-size="42.0" fill="#000000" transform="matrix(1.00, 0.00, -0.00, -1.00, 216.7, 13.0)">l</text><text xml:space="preserve" font-family="Helvetica-Light" font-size="42.0" fill="#000000" transform="matrix(1.00, 0.00, -0.00, -1.00, 226.0, 13.0)">a</text><text xml:space="preserve" font-family="Helvetica-Light" font-size="42.0" fill="#000000" transform="matrix(1.00, 0.00, -0.00, -1.00, 249.4, 13.0)">y</text><text xml:space="preserve" font-family="Helvetica-Light" font-size="42.0" fill="#000000" transform="matrix(1.00, 0.00, -0.00, -1.00, 270.4, 13.0)">e</text><text xml:space="preserve" font-family="Helvetica-Light" font-size="42.0" fill="#000000" transform="matrix(1.00, 0.00, -0.00, -1.00, 293.7, 13.0)">r</text><text xml:space="preserve" font-family="Helvetica-Light" font-size="42.0" fill="#000000" transform="matrix(1.00, 0.00, -0.00, -1.00, 307.7, 13.0)">s</text><text xml:space="preserve" font-family="Helvetica-Light" font-size="42.0" fill="#000000" transform="matrix(1.00, 0.00, -0.00, -1.00, 328.7, 13.0)"> </text><text xml:space="preserve" font-family="Helvetica-Light" font-size="42.0" fill="#000000" transform="matrix(1.00, 0.00, -0.00, -1.00, 340.4, 13.0)">t</text><text xml:space="preserve" font-family="Helvetica-Light" font-size="42.0" fill="#000000" transform="matrix(1.00, 0.00, -0.00, -1.00, 352.0, 13.0)">o</text><text xml:space="preserve" font-family="Helvetica-Light" font-size="42.0" fill="#000000" transform="matrix(1.00, 0.00, -0.00, -1.00, 375.4, 13.0)"> </text><text xml:space="preserve" font-family="Helvetica-Light" font-size="42.0" fill="#000000" transform="matrix(1.00, 0.00, -0.00, -1.00, 387.1, 13.0)">r</text><text xml:space="preserve" font-family="Helvetica-Light" font-size="42.0" fill="#000000" transform="matrix(1.00, 0.00, -0.00, -1.00, 400.3, 13.0)">e</text><text xml:space="preserve" font-family="Helvetica-Light" font-size="42.0" fill="#000000" transform="matrix(1.00, 0.00, -0.00, -1.00, 423.7, 13.0)">d</text><text xml:space="preserve" font-family="Helvetica-Light" font-size="42.0" fill="#000000" transform="matrix(1.00, 0.00, -0.00, -1.00, 449.3, 13.0)">u</text><text xml:space="preserve" font-family="Helvetica-Light" font-size="42.0" fill="#000000" transform="matrix(1.00, 0.00, -0.00, -1.00, 472.7, 13.0)">c</text><text xml:space="preserve" font-family="Helvetica-Light" font-size="42.0" fill="#000000" transform="matrix(1.00, 0.00, -0.00, -1.00, 496.0, 13.0)">e</text><text xml:space="preserve" font-family="Helvetica-Light" font-size="42.0" fill="#000000" transform="matrix(1.00, 0.00, -0.00, -1.00, 519.4, 13.0)"> </text><text xml:space="preserve" font-family="Helvetica-Light" font-size="42.0" fill="#000000" transform="matrix(1.00, 0.00, -0.00, -1.00, 531.0, 13.0)">P</text><text xml:space="preserve" font-family="Helvetica-Light" font-size="42.0" fill="#000000" transform="matrix(1.00, 0.00, -0.00, -1.00, 556.7, 13.0)">a</text><text xml:space="preserve" font-family="Helvetica-Light" font-size="42.0" fill="#000000" transform="matrix(1.00, 0.00, -0.00, -1.00, 580.1, 13.0)">i</text><text xml:space="preserve" font-family="Helvetica-Light" font-size="42.0" fill="#000000" transform="matrix(1.00, 0.00, -0.00, -1.00, 589.4, 13.0)">n</text><text xml:space="preserve" font-family="Helvetica-Light" font-size="42.0" fill="#000000" transform="matrix(1.00, 0.00, -0.00, -1.00, 612.7, 13.0)">t</text><text xml:space="preserve" font-family="Helvetica-Light" font-size="42.0" fill="#000000" transform="matrix(1.00, 0.00, -0.00, -1.00, 624.4, 13.0)"> </text><text xml:space="preserve" font-family="Helvetica-Light" font-size="42.0" fill="#000000" transform="matrix(1.00, 0.00, -0.00, -1.00, 636.1, 13.0)">r</text><text xml:space="preserve" font-family="Helvetica-Light" font-size="42.0" fill="#000000" transform="matrix(1.00, 0.00, -0.00, -1.00, 649.3, 13.0)">e</text><text xml:space="preserve" font-family="Helvetica-Light" font-size="42.0" fill="#000000" transform="matrix(1.00, 0.00, -0.00, -1.00, 672.7, 13.0)">g</text><text xml:space="preserve" font-family="Helvetica-Light" font-size="42.0" fill="#000000" transform="matrix(1.00, 0.00, -0.00, -1.00, 698.3, 13.0)">i</text><text xml:space="preserve" font-family="Helvetica-Light" font-size="42.0" fill="#000000" transform="matrix(1.00, 0.00, -0.00, -1.00, 707.7, 13.0)">o</text><text xml:space="preserve" font-family="Helvetica-Light" font-size="42.0" fill="#000000" transform="matrix(1.00, 0.00, -0.00, -1.00, 731.0, 13.0)">n</text><text xml:space="preserve" font-family="Helvetica-Light" font-size="42.0" fill="#000000" transform="matrix(1.00, 0.00, -0.00, -1.00, 754.4, 13.0)">s</text></g></svg>