<?xml version="1.0" encoding="UTF-8" standalone="no"?><svg xmlns="http://www.w3.org/2000/svg" xmlns:xlink="http://www.w3.org/1999/xlink" clip-rule="evenodd" stroke-miterlimit="4.00" viewBox="0 0 202 28"><desc>SVG generated by Keynote</desc><defs></defs><g transform="matrix(1.00, 0.00, -0.00, -1.00, 0.0, 28.0)"><text xml:space="preserve" font-family="Helvetica-Light" font-size="32.0" fill="#000000" transform="matrix(1.00, 0.00, -0.00, -1.00, -1.0, 2.0)">H</text><text xml:space="preserve" font-family="Helvetica-Light" font-size="32.0" fill="#000000" transform="matrix(1.00, 0.00, -0.00, -1.00, 22.1, 2.0)">o</text><text xml:space="preserve" font-family="Helvetica-Light" font-size="32.0" fill="#000000" transform="matrix(1.00, 0.00, -0.00, -1.00, 39.9, 2.0)">w</text><text xml:space="preserve" font-family="Helvetica-Light" font-size="32.0" fill="#000000" transform="matrix(1.00, 0.00, -0.00, -1.00, 63.0, 2.0)"> </text><text xml:space="preserve" font-family="Helvetica-Light" font-size="32.0" fill="#000000" transform="matrix(1.00, 0.00, -0.00, -1.00, 71.9, 2.0)">t</text><text xml:space="preserve" font-family="Helvetica-Light" font-size="32.0" fill="#000000" transform="matrix(1.00, 0.00, -0.00, -1.00, 80.8, 2.0)">o</text><text xml:space="preserve" font-family="Helvetica-Light" font-size="32.0" fill="#000000" transform="matrix(1.00, 0.00, -0.00, -1.00, 98.6, 2.0)"> </text><text xml:space="preserve" font-family="Helvetica-Light" font-size="32.0" fill="#000000" transform="matrix(1.00, 0.00, -0.00, -1.00, 107.5, 2.0)">ï¬</text><text xml:space="preserve" font-family="Helvetica-Light" font-size="32.0" fill="#000000" transform="matrix(1.00, 0.00, -0.00, -1.00, 123.5, 2.0)">n</text><text xml:space="preserve" font-family="Helvetica-Light" font-size="32.0" fill="#000000" transform="matrix(1.00, 0.00, -0.00, -1.00, 141.3, 2.0)">d</text><text xml:space="preserve" font-family="Helvetica-Light" font-size="32.0" fill="#000000" transform="matrix(1.00, 0.00, -0.00, -1.00, 160.8, 2.0)"> </text><text xml:space="preserve" font-family="Helvetica-Light" font-size="32.0" fill="#000000" transform="matrix(1.00, 0.00, -0.00, -1.00, 169.7, 2.0)">i</text><text xml:space="preserve" font-family="Helvetica-Light" font-size="32.0" fill="#000000" transform="matrix(1.00, 0.00, -0.00, -1.00, 176.8, 2.0)">t</text><text xml:space="preserve" font-family="Helvetica-Light" font-size="32.0" fill="#000000" transform="matrix(1.00, 0.00, -0.00, -1.00, 185.7, 2.0)">?</text></g></svg>