<?xml version="1.0" encoding="UTF-8" standalone="no"?><svg xmlns="http://www.w3.org/2000/svg" xmlns:xlink="http://www.w3.org/1999/xlink" clip-rule="evenodd" stroke-miterlimit="4.00" viewBox="0 0 914 36"><desc>SVG generated by Keynote</desc><defs></defs><g transform="matrix(1.00, 0.00, -0.00, -1.00, 0.0, 36.0)"><text xml:space="preserve" font-family="Helvetica-Light" font-size="25.5" fill="#000000" transform="matrix(1.00, 0.00, -0.00, -1.00, 0.7, 12.4)">•</text><text xml:space="preserve" font-family="Helvetica-Light" font-size="34.0" fill="#000000" transform="matrix(1.00, 0.00, -0.00, -1.00, 26.0, 10.0)">U</text><text xml:space="preserve" font-family="Helvetica-Light" font-size="34.0" fill="#000000" transform="matrix(1.00, 0.00, -0.00, -1.00, 50.5, 10.0)">s</text><text xml:space="preserve" font-family="Helvetica-Light" font-size="34.0" fill="#000000" transform="matrix(1.00, 0.00, -0.00, -1.00, 67.5, 10.0)">e</text><text xml:space="preserve" font-family="Helvetica-Light" font-size="34.0" fill="#000000" transform="matrix(1.00, 0.00, -0.00, -1.00, 86.5, 10.0)">r</text><text xml:space="preserve" font-family="Helvetica-Light" font-size="34.0" fill="#000000" transform="matrix(1.00, 0.00, -0.00, -1.00, 97.8, 10.0)"> </text><text xml:space="preserve" font-family="Helvetica-Light" font-size="34.0" fill="#000000" transform="matrix(1.00, 0.00, -0.00, -1.00, 107.2, 10.0)">T</text><text xml:space="preserve" font-family="Helvetica-Light" font-size="34.0" fill="#000000" transform="matrix(1.00, 0.00, -0.00, -1.00, 126.1, 10.0)">i</text><text xml:space="preserve" font-family="Helvetica-Light" font-size="34.0" fill="#000000" transform="matrix(1.00, 0.00, -0.00, -1.00, 133.7, 10.0)">m</text><text xml:space="preserve" font-family="Helvetica-Light" font-size="34.0" fill="#000000" transform="matrix(1.00, 0.00, -0.00, -1.00, 162.0, 10.0)">i</text><text xml:space="preserve" font-family="Helvetica-Light" font-size="34.0" fill="#000000" transform="matrix(1.00, 0.00, -0.00, -1.00, 169.5, 10.0)">n</text><text xml:space="preserve" font-family="Helvetica-Light" font-size="34.0" fill="#000000" transform="matrix(1.00, 0.00, -0.00, -1.00, 188.5, 10.0)">g</text><text xml:space="preserve" font-family="Helvetica-Light" font-size="34.0" fill="#000000" transform="matrix(1.00, 0.00, -0.00, -1.00, 209.2, 10.0)"> </text><text xml:space="preserve" font-family="Helvetica-Light" font-size="34.0" fill="#000000" transform="matrix(1.00, 0.00, -0.00, -1.00, 218.7, 10.0)">A</text><text xml:space="preserve" font-family="Helvetica-Light" font-size="34.0" fill="#000000" transform="matrix(1.00, 0.00, -0.00, -1.00, 241.4, 10.0)">P</text><text xml:space="preserve" font-family="Helvetica-Light" font-size="34.0" fill="#000000" transform="matrix(1.00, 0.00, -0.00, -1.00, 262.1, 10.0)">I</text><text xml:space="preserve" font-family="Helvetica-Light" font-size="34.0" fill="#000000" transform="matrix(1.00, 0.00, -0.00, -1.00, 271.6, 10.0)">:</text><text xml:space="preserve" font-family="Helvetica-Light" font-size="34.0" fill="#000000" transform="matrix(1.00, 0.00, -0.00, -1.00, 281.0, 10.0)"> </text><text xml:space="preserve" font-family="Courier" font-size="34.0" fill="#000000" transform="matrix(1.00, 0.00, -0.00, -1.00, 290.5, 10.0)">p</text><text xml:space="preserve" font-family="Courier" font-size="34.0" fill="#000000" transform="matrix(1.00, 0.00, -0.00, -1.00, 310.9, 10.0)">e</text><text xml:space="preserve" font-family="Courier" font-size="34.0" fill="#000000" transform="matrix(1.00, 0.00, -0.00, -1.00, 331.3, 10.0)">r</text><text xml:space="preserve" font-family="Courier" font-size="34.0" fill="#000000" transform="matrix(1.00, 0.00, -0.00, -1.00, 351.7, 10.0)">f</text><text xml:space="preserve" font-family="Courier" font-size="34.0" fill="#000000" transform="matrix(1.00, 0.00, -0.00, -1.00, 372.1, 10.0)">o</text><text xml:space="preserve" font-family="Courier" font-size="34.0" fill="#000000" transform="matrix(1.00, 0.00, -0.00, -1.00, 392.5, 10.0)">r</text><text xml:space="preserve" font-family="Courier" font-size="34.0" fill="#000000" transform="matrix(1.00, 0.00, -0.00, -1.00, 412.9, 10.0)">m</text><text xml:space="preserve" font-family="Courier" font-size="34.0" fill="#000000" transform="matrix(1.00, 0.00, -0.00, -1.00, 433.3, 10.0)">a</text><text xml:space="preserve" font-family="Courier" font-size="34.0" fill="#000000" transform="matrix(1.00, 0.00, -0.00, -1.00, 453.7, 10.0)">n</text><text xml:space="preserve" font-family="Courier" font-size="34.0" fill="#000000" transform="matrix(1.00, 0.00, -0.00, -1.00, 474.1, 10.0)">c</text><text xml:space="preserve" font-family="Courier" font-size="34.0" fill="#000000" transform="matrix(1.00, 0.00, -0.00, -1.00, 494.6, 10.0)">e</text><text xml:space="preserve" font-family="Courier" font-size="34.0" fill="#000000" transform="matrix(1.00, 0.00, -0.00, -1.00, 515.0, 10.0)">.</text><text xml:space="preserve" font-family="Courier" font-size="34.0" fill="#000000" transform="matrix(1.00, 0.00, -0.00, -1.00, 535.4, 10.0)">m</text><text xml:space="preserve" font-family="Courier" font-size="34.0" fill="#000000" transform="matrix(1.00, 0.00, -0.00, -1.00, 555.8, 10.0)">a</text><text xml:space="preserve" font-family="Courier" font-size="34.0" fill="#000000" transform="matrix(1.00, 0.00, -0.00, -1.00, 576.2, 10.0)">r</text><text xml:space="preserve" font-family="Courier" font-size="34.0" fill="#000000" transform="matrix(1.00, 0.00, -0.00, -1.00, 596.6, 10.0)">k</text><text xml:space="preserve" font-family="Courier" font-size="34.0" fill="#000000" transform="matrix(1.00, 0.00, -0.00, -1.00, 617.0, 10.0)">(</text><text xml:space="preserve" font-family="Courier" font-size="34.0" fill="#000000" transform="matrix(1.00, 0.00, -0.00, -1.00, 637.4, 10.0)">)</text><text xml:space="preserve" font-family="Helvetica-Light" font-size="34.0" fill="#000000" transform="matrix(1.00, 0.00, -0.00, -1.00, 657.7, 10.0)"> </text><text xml:space="preserve" font-family="Helvetica-Light" font-size="34.0" fill="#000000" transform="matrix(1.00, 0.00, -0.00, -1.00, 667.2, 10.0)">a</text><text xml:space="preserve" font-family="Helvetica-Light" font-size="34.0" fill="#000000" transform="matrix(1.00, 0.00, -0.00, -1.00, 686.1, 10.0)">n</text><text xml:space="preserve" font-family="Helvetica-Light" font-size="34.0" fill="#000000" transform="matrix(1.00, 0.00, -0.00, -1.00, 705.0, 10.0)">d</text><text xml:space="preserve" font-family="Helvetica-Light" font-size="34.0" fill="#000000" transform="matrix(1.00, 0.00, -0.00, -1.00, 725.8, 10.0)"> </text><text xml:space="preserve" font-family="Courier" font-size="34.0" fill="#000000" transform="matrix(1.00, 0.00, -0.00, -1.00, 735.2, 10.0)">m</text><text xml:space="preserve" font-family="Courier" font-size="34.0" fill="#000000" transform="matrix(1.00, 0.00, -0.00, -1.00, 755.6, 10.0)">e</text><text xml:space="preserve" font-family="Courier" font-size="34.0" fill="#000000" transform="matrix(1.00, 0.00, -0.00, -1.00, 776.0, 10.0)">a</text><text xml:space="preserve" font-family="Courier" font-size="34.0" fill="#000000" transform="matrix(1.00, 0.00, -0.00, -1.00, 796.5, 10.0)">s</text><text xml:space="preserve" font-family="Courier" font-size="34.0" fill="#000000" transform="matrix(1.00, 0.00, -0.00, -1.00, 816.9, 10.0)">u</text><text xml:space="preserve" font-family="Courier" font-size="34.0" fill="#000000" transform="matrix(1.00, 0.00, -0.00, -1.00, 837.3, 10.0)">r</text><text xml:space="preserve" font-family="Courier" font-size="34.0" fill="#000000" transform="matrix(1.00, 0.00, -0.00, -1.00, 857.7, 10.0)">e</text><text xml:space="preserve" font-family="Courier" font-size="34.0" fill="#000000" transform="matrix(1.00, 0.00, -0.00, -1.00, 878.1, 10.0)">(</text><text xml:space="preserve" font-family="Courier" font-size="34.0" fill="#000000" transform="matrix(1.00, 0.00, -0.00, -1.00, 898.5, 10.0)">)</text></g></svg>